<mxfile host="app.diagrams.net" agent="Mozilla/5.0 (Windows NT 10.0; Win64; x64) AppleWebKit/537.36 (KHTML, like Gecko) Chrome/129.0.0.0 Safari/537.36" version="24.7.14">
  <diagram name="ページ1" id="-gGjyunlXzf3ZcxIOF-S">
    <mxGraphModel dx="1434" dy="786" grid="1" gridSize="10" guides="1" tooltips="1" connect="1" arrows="1" fold="1" page="1" pageScale="1" pageWidth="827" pageHeight="1169" math="0" shadow="0">
      <root>
        <mxCell id="0" />
        <mxCell id="1" parent="0" />
        <mxCell id="o0S_RNb8j3TQqwbzI2F5-1" value="" style="endArrow=classic;html=1;rounded=0;strokeWidth=5;" edge="1" parent="1">
          <mxGeometry width="50" height="50" relative="1" as="geometry">
            <mxPoint x="160" y="360" as="sourcePoint" />
            <mxPoint x="480" y="360" as="targetPoint" />
          </mxGeometry>
        </mxCell>
        <mxCell id="o0S_RNb8j3TQqwbzI2F5-2" value="" style="endArrow=classic;html=1;rounded=0;strokeWidth=5;" edge="1" parent="1">
          <mxGeometry width="50" height="50" relative="1" as="geometry">
            <mxPoint x="160" y="360" as="sourcePoint" />
            <mxPoint x="160" y="40" as="targetPoint" />
          </mxGeometry>
        </mxCell>
        <mxCell id="o0S_RNb8j3TQqwbzI2F5-3" value="V" style="text;html=1;align=center;verticalAlign=middle;whiteSpace=wrap;rounded=0;fontSize=30;fontStyle=1" vertex="1" parent="1">
          <mxGeometry x="290" y="370" width="60" height="30" as="geometry" />
        </mxCell>
        <mxCell id="o0S_RNb8j3TQqwbzI2F5-4" value="V&#39;" style="text;html=1;align=center;verticalAlign=middle;whiteSpace=wrap;rounded=0;fontSize=30;fontStyle=1" vertex="1" parent="1">
          <mxGeometry x="90" y="180" width="60" height="30" as="geometry" />
        </mxCell>
        <mxCell id="o0S_RNb8j3TQqwbzI2F5-5" value="" style="endArrow=none;html=1;rounded=0;" edge="1" parent="1">
          <mxGeometry width="50" height="50" relative="1" as="geometry">
            <mxPoint x="160" y="360" as="sourcePoint" />
            <mxPoint x="440" y="80" as="targetPoint" />
          </mxGeometry>
        </mxCell>
        <mxCell id="o0S_RNb8j3TQqwbzI2F5-6" value="" style="endArrow=classic;html=1;rounded=0;dashed=1;" edge="1" parent="1">
          <mxGeometry width="50" height="50" relative="1" as="geometry">
            <mxPoint x="320" y="360" as="sourcePoint" />
            <mxPoint x="320" y="200" as="targetPoint" />
          </mxGeometry>
        </mxCell>
        <mxCell id="o0S_RNb8j3TQqwbzI2F5-7" value="" style="endArrow=classic;html=1;rounded=0;dashed=1;" edge="1" parent="1">
          <mxGeometry width="50" height="50" relative="1" as="geometry">
            <mxPoint x="320" y="200" as="sourcePoint" />
            <mxPoint x="160" y="200" as="targetPoint" />
          </mxGeometry>
        </mxCell>
        <mxCell id="o0S_RNb8j3TQqwbzI2F5-8" value="" style="endArrow=classic;html=1;rounded=0;strokeWidth=5;" edge="1" parent="1">
          <mxGeometry width="50" height="50" relative="1" as="geometry">
            <mxPoint x="160" y="760" as="sourcePoint" />
            <mxPoint x="480" y="760" as="targetPoint" />
          </mxGeometry>
        </mxCell>
        <mxCell id="o0S_RNb8j3TQqwbzI2F5-9" value="" style="endArrow=classic;html=1;rounded=0;strokeWidth=5;" edge="1" parent="1">
          <mxGeometry width="50" height="50" relative="1" as="geometry">
            <mxPoint x="160" y="760" as="sourcePoint" />
            <mxPoint x="160" y="440" as="targetPoint" />
          </mxGeometry>
        </mxCell>
        <mxCell id="o0S_RNb8j3TQqwbzI2F5-10" value="V" style="text;html=1;align=center;verticalAlign=middle;whiteSpace=wrap;rounded=0;fontSize=30;fontStyle=1" vertex="1" parent="1">
          <mxGeometry x="290" y="770" width="60" height="30" as="geometry" />
        </mxCell>
        <mxCell id="o0S_RNb8j3TQqwbzI2F5-11" value="V&#39;" style="text;html=1;align=center;verticalAlign=middle;whiteSpace=wrap;rounded=0;fontSize=30;fontStyle=1" vertex="1" parent="1">
          <mxGeometry x="90" y="580" width="60" height="30" as="geometry" />
        </mxCell>
        <mxCell id="o0S_RNb8j3TQqwbzI2F5-12" value="" style="endArrow=none;html=1;rounded=0;strokeColor=#CCCCCC;" edge="1" parent="1">
          <mxGeometry width="50" height="50" relative="1" as="geometry">
            <mxPoint x="160" y="760" as="sourcePoint" />
            <mxPoint x="440" y="480" as="targetPoint" />
          </mxGeometry>
        </mxCell>
        <mxCell id="o0S_RNb8j3TQqwbzI2F5-13" value="" style="endArrow=classic;html=1;rounded=0;dashed=1;" edge="1" parent="1">
          <mxGeometry width="50" height="50" relative="1" as="geometry">
            <mxPoint x="320" y="760" as="sourcePoint" />
            <mxPoint x="320" y="520" as="targetPoint" />
          </mxGeometry>
        </mxCell>
        <mxCell id="o0S_RNb8j3TQqwbzI2F5-14" value="" style="endArrow=classic;html=1;rounded=0;dashed=1;" edge="1" parent="1">
          <mxGeometry width="50" height="50" relative="1" as="geometry">
            <mxPoint x="320" y="520" as="sourcePoint" />
            <mxPoint x="160" y="520" as="targetPoint" />
          </mxGeometry>
        </mxCell>
        <mxCell id="o0S_RNb8j3TQqwbzI2F5-15" value="" style="endArrow=none;html=1;rounded=0;" edge="1" parent="1">
          <mxGeometry width="50" height="50" relative="1" as="geometry">
            <mxPoint x="160" y="680" as="sourcePoint" />
            <mxPoint x="360" y="480" as="targetPoint" />
          </mxGeometry>
        </mxCell>
        <mxCell id="o0S_RNb8j3TQqwbzI2F5-16" value="" style="endArrow=none;html=1;rounded=0;" edge="1" parent="1">
          <mxGeometry width="50" height="50" relative="1" as="geometry">
            <mxPoint x="440" y="480" as="sourcePoint" />
            <mxPoint x="360" y="480" as="targetPoint" />
          </mxGeometry>
        </mxCell>
        <mxCell id="o0S_RNb8j3TQqwbzI2F5-17" value="" style="endArrow=classic;html=1;rounded=0;strokeWidth=8;" edge="1" parent="1">
          <mxGeometry width="50" height="50" relative="1" as="geometry">
            <mxPoint x="240" y="680" as="sourcePoint" />
            <mxPoint x="240" y="600" as="targetPoint" />
          </mxGeometry>
        </mxCell>
        <mxCell id="o0S_RNb8j3TQqwbzI2F5-18" value="brightness" style="text;html=1;align=center;verticalAlign=middle;whiteSpace=wrap;rounded=0;fontSize=20;" vertex="1" parent="1">
          <mxGeometry x="210" y="680" width="60" height="30" as="geometry" />
        </mxCell>
        <mxCell id="o0S_RNb8j3TQqwbzI2F5-19" value="" style="endArrow=classic;html=1;rounded=0;strokeWidth=5;" edge="1" parent="1">
          <mxGeometry width="50" height="50" relative="1" as="geometry">
            <mxPoint x="560" y="360" as="sourcePoint" />
            <mxPoint x="880" y="360" as="targetPoint" />
          </mxGeometry>
        </mxCell>
        <mxCell id="o0S_RNb8j3TQqwbzI2F5-20" value="" style="endArrow=classic;html=1;rounded=0;strokeWidth=5;" edge="1" parent="1">
          <mxGeometry width="50" height="50" relative="1" as="geometry">
            <mxPoint x="560" y="360" as="sourcePoint" />
            <mxPoint x="560" y="40" as="targetPoint" />
          </mxGeometry>
        </mxCell>
        <mxCell id="o0S_RNb8j3TQqwbzI2F5-21" value="V&#39;" style="text;html=1;align=center;verticalAlign=middle;whiteSpace=wrap;rounded=0;fontSize=30;fontStyle=1" vertex="1" parent="1">
          <mxGeometry x="490" y="180" width="60" height="30" as="geometry" />
        </mxCell>
        <mxCell id="o0S_RNb8j3TQqwbzI2F5-23" value="" style="endArrow=classic;html=1;rounded=0;dashed=1;" edge="1" parent="1">
          <mxGeometry width="50" height="50" relative="1" as="geometry">
            <mxPoint x="760" y="360" as="sourcePoint" />
            <mxPoint x="760" y="130" as="targetPoint" />
          </mxGeometry>
        </mxCell>
        <mxCell id="o0S_RNb8j3TQqwbzI2F5-24" value="" style="endArrow=classic;html=1;rounded=0;dashed=1;" edge="1" parent="1">
          <mxGeometry width="50" height="50" relative="1" as="geometry">
            <mxPoint x="760" y="130" as="sourcePoint" />
            <mxPoint x="560" y="130" as="targetPoint" />
          </mxGeometry>
        </mxCell>
        <mxCell id="o0S_RNb8j3TQqwbzI2F5-25" value="" style="endArrow=none;html=1;rounded=0;strokeColor=#CCCCCC;" edge="1" parent="1">
          <mxGeometry width="50" height="50" relative="1" as="geometry">
            <mxPoint x="560" y="360" as="sourcePoint" />
            <mxPoint x="840" y="80" as="targetPoint" />
          </mxGeometry>
        </mxCell>
        <mxCell id="o0S_RNb8j3TQqwbzI2F5-26" value="" style="endArrow=none;html=1;rounded=0;" edge="1" parent="1">
          <mxGeometry width="50" height="50" relative="1" as="geometry">
            <mxPoint x="628" y="360" as="sourcePoint" />
            <mxPoint x="788" y="80" as="targetPoint" />
          </mxGeometry>
        </mxCell>
        <mxCell id="o0S_RNb8j3TQqwbzI2F5-27" value="" style="endArrow=none;html=1;rounded=0;" edge="1" parent="1">
          <mxGeometry width="50" height="50" relative="1" as="geometry">
            <mxPoint x="840" y="80" as="sourcePoint" />
            <mxPoint x="790" y="80" as="targetPoint" />
          </mxGeometry>
        </mxCell>
        <mxCell id="o0S_RNb8j3TQqwbzI2F5-28" value="" style="endArrow=classic;html=1;rounded=0;strokeWidth=5;" edge="1" parent="1">
          <mxGeometry width="50" height="50" relative="1" as="geometry">
            <mxPoint x="595" y="770" as="sourcePoint" />
            <mxPoint x="915" y="770" as="targetPoint" />
          </mxGeometry>
        </mxCell>
        <mxCell id="o0S_RNb8j3TQqwbzI2F5-29" value="" style="endArrow=classic;html=1;rounded=0;strokeWidth=5;" edge="1" parent="1">
          <mxGeometry width="50" height="50" relative="1" as="geometry">
            <mxPoint x="595" y="770" as="sourcePoint" />
            <mxPoint x="595" y="450" as="targetPoint" />
          </mxGeometry>
        </mxCell>
        <mxCell id="o0S_RNb8j3TQqwbzI2F5-30" value="V" style="text;html=1;align=center;verticalAlign=middle;whiteSpace=wrap;rounded=0;fontSize=30;fontStyle=1" vertex="1" parent="1">
          <mxGeometry x="725" y="780" width="60" height="30" as="geometry" />
        </mxCell>
        <mxCell id="o0S_RNb8j3TQqwbzI2F5-31" value="V&#39;" style="text;html=1;align=center;verticalAlign=middle;whiteSpace=wrap;rounded=0;fontSize=30;fontStyle=1" vertex="1" parent="1">
          <mxGeometry x="525" y="590" width="60" height="30" as="geometry" />
        </mxCell>
        <mxCell id="o0S_RNb8j3TQqwbzI2F5-32" value="" style="endArrow=none;html=1;rounded=0;" edge="1" parent="1">
          <mxGeometry width="50" height="50" relative="1" as="geometry">
            <mxPoint x="595" y="770" as="sourcePoint" />
            <mxPoint x="875" y="490" as="targetPoint" />
          </mxGeometry>
        </mxCell>
        <mxCell id="o0S_RNb8j3TQqwbzI2F5-33" value="" style="endArrow=classic;html=1;rounded=0;dashed=1;" edge="1" parent="1">
          <mxGeometry width="50" height="50" relative="1" as="geometry">
            <mxPoint x="795" y="770" as="sourcePoint" />
            <mxPoint x="795" y="570" as="targetPoint" />
          </mxGeometry>
        </mxCell>
        <mxCell id="o0S_RNb8j3TQqwbzI2F5-34" value="" style="endArrow=classic;html=1;rounded=0;dashed=1;" edge="1" parent="1">
          <mxGeometry width="50" height="50" relative="1" as="geometry">
            <mxPoint x="795" y="570" as="sourcePoint" />
            <mxPoint x="595" y="570" as="targetPoint" />
          </mxGeometry>
        </mxCell>
        <mxCell id="o0S_RNb8j3TQqwbzI2F5-35" value="V" style="text;html=1;align=center;verticalAlign=middle;whiteSpace=wrap;rounded=0;fontSize=30;fontStyle=1" vertex="1" parent="1">
          <mxGeometry x="690" y="370" width="60" height="30" as="geometry" />
        </mxCell>
        <mxCell id="o0S_RNb8j3TQqwbzI2F5-36" value="" style="endArrow=classic;html=1;rounded=0;strokeWidth=5;" edge="1" parent="1">
          <mxGeometry width="50" height="50" relative="1" as="geometry">
            <mxPoint x="160" y="1120" as="sourcePoint" />
            <mxPoint x="480" y="1120" as="targetPoint" />
          </mxGeometry>
        </mxCell>
        <mxCell id="o0S_RNb8j3TQqwbzI2F5-37" value="" style="endArrow=classic;html=1;rounded=0;strokeWidth=5;" edge="1" parent="1">
          <mxGeometry width="50" height="50" relative="1" as="geometry">
            <mxPoint x="160" y="1120" as="sourcePoint" />
            <mxPoint x="160" y="800" as="targetPoint" />
          </mxGeometry>
        </mxCell>
        <mxCell id="o0S_RNb8j3TQqwbzI2F5-38" value="V" style="text;html=1;align=center;verticalAlign=middle;whiteSpace=wrap;rounded=0;fontSize=30;fontStyle=1" vertex="1" parent="1">
          <mxGeometry x="290" y="1130" width="60" height="30" as="geometry" />
        </mxCell>
        <mxCell id="o0S_RNb8j3TQqwbzI2F5-39" value="V&#39;" style="text;html=1;align=center;verticalAlign=middle;whiteSpace=wrap;rounded=0;fontSize=30;fontStyle=1" vertex="1" parent="1">
          <mxGeometry x="90" y="940" width="60" height="30" as="geometry" />
        </mxCell>
        <mxCell id="o0S_RNb8j3TQqwbzI2F5-41" value="" style="endArrow=classic;html=1;rounded=0;dashed=1;" edge="1" parent="1">
          <mxGeometry width="50" height="50" relative="1" as="geometry">
            <mxPoint x="240" y="1120" as="sourcePoint" />
            <mxPoint x="240" y="920" as="targetPoint" />
          </mxGeometry>
        </mxCell>
        <mxCell id="o0S_RNb8j3TQqwbzI2F5-42" value="" style="endArrow=classic;html=1;rounded=0;dashed=1;" edge="1" parent="1">
          <mxGeometry width="50" height="50" relative="1" as="geometry">
            <mxPoint x="240" y="920" as="sourcePoint" />
            <mxPoint x="160" y="920" as="targetPoint" />
          </mxGeometry>
        </mxCell>
        <mxCell id="o0S_RNb8j3TQqwbzI2F5-43" value="" style="curved=1;endArrow=none;html=1;rounded=0;endFill=0;" edge="1" parent="1">
          <mxGeometry width="50" height="50" relative="1" as="geometry">
            <mxPoint x="160" y="1120" as="sourcePoint" />
            <mxPoint x="440" y="840" as="targetPoint" />
            <Array as="points">
              <mxPoint x="180" y="850" />
            </Array>
          </mxGeometry>
        </mxCell>
        <mxCell id="o0S_RNb8j3TQqwbzI2F5-44" value="" style="endArrow=none;html=1;rounded=0;strokeColor=#CCCCCC;" edge="1" parent="1">
          <mxGeometry width="50" height="50" relative="1" as="geometry">
            <mxPoint x="160" y="1120" as="sourcePoint" />
            <mxPoint x="440" y="840" as="targetPoint" />
          </mxGeometry>
        </mxCell>
        <mxCell id="o0S_RNb8j3TQqwbzI2F5-46" value="γ&amp;gt;1.0" style="text;html=1;align=center;verticalAlign=middle;whiteSpace=wrap;rounded=0;fontSize=20;" vertex="1" parent="1">
          <mxGeometry x="370" y="950" width="60" height="30" as="geometry" />
        </mxCell>
        <mxCell id="o0S_RNb8j3TQqwbzI2F5-47" value="" style="endArrow=classic;html=1;rounded=0;strokeWidth=5;" edge="1" parent="1">
          <mxGeometry width="50" height="50" relative="1" as="geometry">
            <mxPoint x="921" y="1120" as="sourcePoint" />
            <mxPoint x="1241" y="1120" as="targetPoint" />
          </mxGeometry>
        </mxCell>
        <mxCell id="o0S_RNb8j3TQqwbzI2F5-48" value="" style="endArrow=classic;html=1;rounded=0;strokeWidth=5;" edge="1" parent="1">
          <mxGeometry width="50" height="50" relative="1" as="geometry">
            <mxPoint x="921" y="1120" as="sourcePoint" />
            <mxPoint x="921" y="800" as="targetPoint" />
          </mxGeometry>
        </mxCell>
        <mxCell id="o0S_RNb8j3TQqwbzI2F5-49" value="V" style="text;html=1;align=center;verticalAlign=middle;whiteSpace=wrap;rounded=0;fontSize=30;fontStyle=1" vertex="1" parent="1">
          <mxGeometry x="1051" y="1130" width="60" height="30" as="geometry" />
        </mxCell>
        <mxCell id="o0S_RNb8j3TQqwbzI2F5-50" value="V&#39;" style="text;html=1;align=center;verticalAlign=middle;whiteSpace=wrap;rounded=0;fontSize=30;fontStyle=1" vertex="1" parent="1">
          <mxGeometry x="851" y="940" width="60" height="30" as="geometry" />
        </mxCell>
        <mxCell id="o0S_RNb8j3TQqwbzI2F5-51" value="" style="endArrow=classic;html=1;rounded=0;dashed=1;" edge="1" parent="1">
          <mxGeometry width="50" height="50" relative="1" as="geometry">
            <mxPoint x="1160" y="1120" as="sourcePoint" />
            <mxPoint x="1160" y="1000" as="targetPoint" />
          </mxGeometry>
        </mxCell>
        <mxCell id="o0S_RNb8j3TQqwbzI2F5-52" value="" style="endArrow=classic;html=1;rounded=0;dashed=1;" edge="1" parent="1">
          <mxGeometry width="50" height="50" relative="1" as="geometry">
            <mxPoint x="1160" y="1000" as="sourcePoint" />
            <mxPoint x="921" y="1000" as="targetPoint" />
          </mxGeometry>
        </mxCell>
        <mxCell id="o0S_RNb8j3TQqwbzI2F5-53" value="" style="curved=1;endArrow=none;html=1;rounded=0;endFill=0;" edge="1" parent="1">
          <mxGeometry width="50" height="50" relative="1" as="geometry">
            <mxPoint x="921" y="1120" as="sourcePoint" />
            <mxPoint x="1201" y="840" as="targetPoint" />
            <Array as="points">
              <mxPoint x="1190" y="1100" />
            </Array>
          </mxGeometry>
        </mxCell>
        <mxCell id="o0S_RNb8j3TQqwbzI2F5-54" value="" style="endArrow=none;html=1;rounded=0;strokeColor=#CCCCCC;" edge="1" parent="1">
          <mxGeometry width="50" height="50" relative="1" as="geometry">
            <mxPoint x="921" y="1120" as="sourcePoint" />
            <mxPoint x="1201" y="840" as="targetPoint" />
          </mxGeometry>
        </mxCell>
        <mxCell id="o0S_RNb8j3TQqwbzI2F5-55" value="γ&amp;lt;1.0" style="text;html=1;align=center;verticalAlign=middle;whiteSpace=wrap;rounded=0;fontSize=20;" vertex="1" parent="1">
          <mxGeometry x="980" y="930" width="60" height="30" as="geometry" />
        </mxCell>
      </root>
    </mxGraphModel>
  </diagram>
</mxfile>
